<?xml version="1.0" standalone="no"?>
<!DOCTYPE svg PUBLIC "-//W3C//DTD SVG 20010904//EN"
 "http://www.w3.org/TR/2001/REC-SVG-20010904/DTD/svg10.dtd">
<svg version="1.0" xmlns="http://www.w3.org/2000/svg"
 width="379.000000pt" height="416.000000pt" viewBox="0 0 379.000000 416.000000"
 preserveAspectRatio="xMidYMid meet">

<g transform="translate(0.000000,416.000000) scale(0.100000,-0.100000)"
fill="#ffffff" stroke="none">
<path d="M2174 3961 c-22 -9 -55 -28 -73 -43 -18 -16 -37 -28 -42 -28 -17 0
-9 -93 11 -136 64 -132 211 -63 210 98 -1 45 -6 58 -33 89 l-32 35 -41 -15z"/>
<path d="M1839 3924 c-13 -7 -31 -16 -39 -20 -23 -11 -30 -26 -30 -64 0 -54
38 -122 82 -143 33 -16 40 -16 70 -4 41 17 64 50 77 109 9 40 2 111 -13 126
-13 12 -124 10 -147 -4z"/>
<path d="M2335 3740 c-75 -31 -104 -152 -58 -243 15 -31 68 -67 96 -67 37 0
79 32 98 73 36 80 20 169 -40 220 -33 27 -60 32 -96 17z"/>
<path d="M1728 3720 c-2 -6 -33 -13 -70 -17 -66 -6 -67 -6 -82 -45 -30 -74
-14 -150 41 -198 30 -27 42 -31 71 -26 99 16 145 166 80 262 -24 35 -34 41
-40 24z"/>
<path d="M977 3584 c-18 -13 -42 -29 -54 -35 -19 -10 -23 -21 -23 -61 0 -60
19 -108 55 -136 81 -64 183 28 173 154 -8 97 -77 132 -151 78z"/>
<path d="M2054 3601 c9 -13 -78 -44 -102 -37 -27 9 -45 -17 -52 -72 -5 -43 -7
-46 -35 -48 -16 -1 -38 -2 -49 -3 -10 0 -33 -16 -52 -35 -31 -31 -34 -40 -34
-90 0 -50 4 -60 33 -93 29 -31 41 -37 88 -40 39 -4 68 1 107 16 65 26 79 26
133 1 91 -41 188 -17 220 54 23 50 23 65 3 115 -18 47 -49 70 -107 79 -40 7
-42 9 -54 57 -8 33 -23 59 -43 78 -28 25 -68 38 -56 18z"/>
<path d="M671 3560 c-43 -23 -46 -28 -49 -68 -6 -83 53 -162 121 -162 33 0 76
36 93 76 15 35 19 131 6 150 -26 40 -101 42 -171 4z"/>
<path d="M3345 3548 c-11 -7 -28 -22 -38 -35 -10 -13 -24 -23 -31 -23 -19 0
-26 -49 -15 -101 23 -101 115 -142 178 -78 58 57 66 180 16 226 -27 25 -77 30
-110 11z"/>
<path d="M3092 3529 c-24 -5 -58 -17 -75 -27 -26 -15 -33 -25 -35 -57 -10
-123 92 -207 173 -143 15 12 34 36 41 54 16 39 18 117 4 144 -14 26 -58 38
-108 29z"/>
<path d="M1152 3365 c-67 -56 -64 -195 4 -255 61 -53 129 -35 165 44 37 81 19
171 -44 214 -44 29 -88 28 -125 -3z"/>
<path d="M577 3367 c-5 -13 -19 -17 -64 -17 -69 0 -76 -4 -91 -49 -51 -147 69
-281 171 -191 65 57 74 174 18 240 -23 28 -29 31 -34 17z"/>
<path d="M3511 3314 c-51 -43 -66 -136 -32 -210 24 -52 55 -74 104 -74 73 0
127 90 112 188 -5 34 -16 54 -46 83 -49 48 -92 52 -138 13z"/>
<path d="M2936 3311 c-3 -4 -33 -11 -67 -14 -79 -7 -92 -20 -97 -100 -7 -102
38 -167 113 -167 102 0 158 156 91 257 -22 34 -31 39 -40 24z"/>
<path d="M904 3251 c9 -13 -57 -41 -102 -43 -37 -1 -46 -14 -57 -75 -4 -24
-10 -43 -13 -44 -4 -1 -26 -2 -49 -3 -146 -7 -142 -236 5 -261 30 -5 58 0 113
19 l73 25 76 -25 c66 -22 81 -24 117 -15 57 16 89 44 101 91 21 85 -24 160
-106 174 -43 6 -62 27 -62 65 0 12 -12 34 -27 50 -29 29 -81 61 -69 42z"/>
<path d="M3250 3186 c0 -18 -22 -26 -75 -26 -51 0 -66 -15 -72 -74 -4 -36 -10
-46 -28 -50 -13 -3 -29 -4 -37 -1 -22 8 -78 -33 -94 -70 -19 -47 -18 -81 7
-125 23 -41 73 -70 119 -70 16 0 59 11 95 25 l65 24 65 -24 c75 -29 111 -31
160 -11 95 40 101 197 9 241 -18 8 -41 15 -52 15 -26 0 -52 26 -52 52 0 47
-63 114 -81 86 -7 -10 -9 -9 -9 5 0 9 -4 17 -10 17 -5 0 -10 -6 -10 -14z"/>
<path d="M686 2480 c-16 -5 -45 -24 -64 -42 -19 -18 -31 -26 -27 -18 8 13 7
13 -8 1 -23 -18 -23 -101 0 -148 17 -37 65 -73 96 -73 100 0 160 195 81 263
-32 29 -35 29 -78 17z"/>
<path d="M400 2451 c-44 -7 -88 -26 -102 -46 -12 -16 -9 -83 6 -118 18 -44 71
-87 105 -87 33 0 76 31 95 68 32 64 27 149 -11 178 -19 14 -25 15 -93 5z"/>
<path d="M860 2258 c-67 -25 -103 -113 -80 -197 16 -61 67 -111 113 -111 112
0 162 193 71 278 -32 30 -72 42 -104 30z"/>
<path d="M250 2230 c0 -6 -28 -10 -65 -10 -63 0 -66 -1 -85 -32 -55 -91 7
-238 100 -238 49 0 106 61 115 123 9 59 0 108 -26 141 -21 27 -39 34 -39 16z"/>
<path d="M564 2111 c7 -11 -47 -31 -81 -31 -16 0 -22 4 -18 13 4 6 -5 -1 -19
-16 -24 -26 -32 -54 -28 -99 2 -18 -13 -22 -69 -18 -36 2 -86 -43 -100 -90
-10 -33 -9 -47 5 -85 37 -95 120 -113 262 -54 28 11 38 10 89 -11 66 -27 129
-29 174 -6 111 58 79 230 -48 251 -47 8 -50 11 -57 55 -7 43 -24 62 -57 67
-27 4 -36 13 -13 13 9 0 14 5 11 10 -3 6 -17 10 -31 10 -14 0 -23 -4 -20 -9z"/>
<path d="M3325 1349 c-16 -16 -37 -31 -46 -34 -31 -10 -31 -95 -1 -152 18 -33
62 -63 93 -63 94 0 156 183 87 257 -32 35 -94 31 -133 -8z"/>
<path d="M1029 1352 c-22 -2 -47 -14 -66 -31 -17 -15 -38 -31 -47 -34 -23 -9
-21 -102 2 -147 22 -41 79 -74 115 -65 62 16 106 110 93 195 -9 57 -44 86 -97
82z"/>
<path d="M3070 1344 c-75 -16 -90 -31 -90 -92 0 -84 55 -152 124 -152 37 0 93
58 102 106 8 41 0 122 -12 134 -18 16 -61 17 -124 4z"/>
<path d="M725 1320 c-16 -4 -47 -14 -67 -23 -36 -15 -38 -18 -38 -62 0 -157
152 -221 214 -90 22 46 19 161 -5 176 -16 10 -61 10 -104 -1z"/>
<path d="M3515 1138 c-54 -42 -70 -130 -39 -208 32 -80 119 -106 174 -52 46
47 62 133 36 195 -32 78 -115 109 -171 65z"/>
<path d="M1174 1124 c-87 -43 -97 -196 -17 -271 57 -54 125 -37 162 40 44 91
17 192 -61 233 -34 18 -45 17 -84 -2z"/>
<path d="M2930 1132 c0 -5 -26 -10 -57 -11 -75 -3 -95 -21 -101 -94 -5 -69 11
-119 49 -152 56 -46 128 -25 166 48 24 48 22 136 -6 181 -20 32 -51 49 -51 28z"/>
<path d="M577 1106 c-4 -10 -15 -16 -24 -15 -10 0 -39 1 -64 0 -43 -1 -48 -4
-63 -35 -34 -73 -7 -190 53 -220 46 -24 76 -20 114 17 66 61 74 176 18 239
-24 27 -29 29 -34 14z"/>
<path d="M3243 1006 c4 -10 -8 -17 -40 -25 -51 -13 -62 -9 -42 16 7 10 -1 5
-18 -11 -24 -22 -34 -41 -40 -80 l-9 -51 -40 3 c-104 8 -160 -131 -88 -218 46
-54 116 -60 216 -18 l48 20 70 -26 c84 -31 102 -32 157 -7 49 23 73 62 73 121
0 77 -38 119 -122 134 -29 5 -39 12 -43 31 -3 14 -7 36 -10 50 -3 15 -16 30
-29 35 -13 4 -26 16 -29 24 -4 9 -18 16 -33 16 -18 0 -25 -4 -21 -14z"/>
<path d="M883 986 c7 -19 -42 -39 -76 -31 -32 8 -56 -24 -61 -81 -4 -39 -4
-39 -54 -44 -81 -9 -133 -76 -116 -152 22 -102 109 -133 240 -86 l61 22 58
-22 c123 -47 227 -8 235 88 7 87 -23 132 -105 155 -44 13 -54 21 -59 43 -13
55 -29 82 -47 82 -11 0 -19 6 -19 14 0 14 -21 26 -47 26 -9 0 -13 -6 -10 -14z"/>
<path d="M2155 923 c-22 -8 -44 -21 -48 -29 -5 -8 -20 -19 -33 -24 -21 -8 -24
-16 -24 -57 0 -64 32 -127 75 -147 44 -21 77 -13 114 30 54 61 56 180 4 221
-32 26 -33 26 -88 6z"/>
<path d="M1850 897 c-68 -36 -80 -48 -80 -86 0 -42 29 -108 57 -133 48 -43
124 -23 158 43 17 33 24 119 11 155 -11 35 -97 47 -146 21z"/>
<path d="M2306 689 c-51 -44 -66 -118 -40 -191 21 -57 67 -98 111 -98 58 0
113 74 113 153 0 51 -17 107 -33 107 -6 0 -7 3 -4 7 11 11 -56 53 -85 53 -16
0 -41 -12 -62 -31z"/>
<path d="M1725 680 c-3 -5 -32 -10 -64 -10 -71 0 -89 -16 -98 -87 -7 -65 10
-114 53 -153 50 -43 87 -41 134 9 52 54 64 127 35 198 -20 48 -46 66 -60 43z"/>
<path d="M2040 566 c0 -12 -19 -23 -72 -40 -9 -2 -19 0 -21 7 -9 25 -41 -23
-47 -70 l-5 -48 -54 -5 c-44 -5 -58 -11 -82 -38 -24 -27 -29 -41 -29 -83 0
-122 93 -168 236 -117 l61 22 58 -22 c96 -37 181 -25 218 31 27 42 31 91 10
138 -21 47 -45 64 -108 77 -38 7 -41 11 -52 57 -13 52 -56 100 -81 90 -7 -3
-10 0 -7 5 3 6 -1 10 -9 10 -9 0 -16 -6 -16 -14z"/>
</g>
</svg>
